# xmcd CD database file
#
# Track frame offsets:
#	150
#	21460
#	43715
#	64712
#	86937
#	106857
#	130207
#	153487
#	172670
#	193292
#
# Disc length: 2852 seconds
#
# Revision: 4
# Processed by: cddbd v1.5.1PL0 Copyright (c) Steve Scherf et al.
# Submitted via: CDex 1.51
#
DISCID=850b220a
DTITLE=Brent Lewis - Pulse...Where The Rhythm Begins
DYEAR=1995
DGENRE=Instrumental
TTITLE0=Jungle Sugar
TTITLE1=Drums on the Nile
TTITLE2=Witch Doctor
TTITLE3=The Bird
TTITLE4=Talking Drums
TTITLE5=Magic Carpet
TTITLE6=Mumbo Jumbo
TTITLE7=Sticks
TTITLE8=Message from the Forest
TTITLE9=The Boatman
EXTD=YEAR: 1995
EXTT0=
EXTT1=
EXTT2=
EXTT3=
EXTT4=
EXTT5=
EXTT6=
EXTT7=
EXTT8=
EXTT9=
PLAYORDER=
